<svg xmlns="http://www.w3.org/2000/svg">

  <symbol id="activeStatus" viewBox="0 0 24 24" fill="#22c55e">
    <circle cx="12" cy="12" r="8" />
  </symbol>

  <symbol id="ban" viewBox="0 0 24 24" fill="none" stroke="currentColor" stroke-width="2" stroke-linecap="round"
    stroke-linejoin="round">
    <circle cx="12" cy="12" r="10" />
    <path d="M4.93 4.93 19.07 19.07" />
  </symbol>

  <symbol id="crown" viewBox="0 0 24 24" fill="none" stroke="currentColor" stroke-width="2" stroke-linecap="round"
    stroke-linejoin="round">
    <path d="m2 4 3 12h14l3-12-6 7-4-7-4 7-6-7zm3 16h14" />
  </symbol>

  <symbol id="diamond" viewBox="0 0 24 24" fill="none" stroke="currentColor" stroke-width="2" stroke-linecap="round"
    stroke-linejoin="round">
    <path d="M2.7 10.3 12 21l9.3-10.7" />
    <path d="M12 21 2.7 10.3h18.6L12 21Z" />
    <path d="M2.7 10.3 12 3l9.3 7.3" />
    <path d="m6.2 10.3 5.8-7.3 5.8 7.3" />
  </symbol>

  <symbol id="exclamation-mark" viewBox="0 0 24 24" fill="none" stroke="currentColor" stroke-width="2"
    stroke-linecap="round">
    <circle cx="12" cy="12" r="10" />
    <path d="M12 16v-4" />
    <path d="M12 8h.01" />
  </symbol>

  <symbol id="special-mapper" fill="none" stroke="currentColor" stroke-width="2" viewBox="0 0 24 24">
    <path
      d="M14 6a2 2 0 0 0 2 0l4-2a1 1 0 0 1 1 1v12a1 1 0 0 1-1 1l-4 3a2 2 0 0 1-2 0l-4-3a2 2 0 0 0-2 0l-4 2a1 1 0 0 1-1-1V7a1 1 0 0 1 1-1l4-3a2 2 0 0 1 2 0zm1 0v15M9 3v15" />
  </symbol>

  <symbol id="star" viewBox="0 0 24 24" fill="none" stroke="currentColor" stroke-width="2" stroke-linejoin="round">
    <polygon points="12 2 15.09 8.26 22 9.27 17 14.14 18.18 21.02 12 17.77 5.82 21.02 7 14.14 2 9.27 8.91 8.26 12 2" />
  </symbol>

  <symbol id="timer" viewBox="0 0 24 24" fill="none" stroke="currentColor" stroke-width="2" stroke-linecap="round">
    <circle cx="12" cy="12" r="10" />
    <polyline points="12 6 12 12 16 14" />
  </symbol>

  <symbol id="trophy" viewBox="0 0 24 24" fill="none" stroke="currentColor" stroke-width="2" stroke-linecap="round"
    stroke-linejoin="round">
    <path d="M6 9H4.5a2.5 2.5 0 0 1 0-5H6" />
    <path d="M18 9h1.5a2.5 2.5 0 0 0 0-5H18" />
    <path d="M4 22h16" />
    <path d="M10 14.66V17c0 .55-.47.98-.97 1.21C7.85 18.75 7 20.24 7 22" />
    <path d="M14 14.66V17c0 .55.47.98.97 1.21C16.15 18.75 17 20.24 17 22" />
    <path d="M18 2H6v7a6 6 0 0 0 12 0V2Z" />
  </symbol>

  <symbol id="youtube" viewBox="0 0 24 24">
    <path
      d="M23.498 6.186a3.016 3.016 0 0 0-2.122-2.136C19.505 3.545 12 3.545 12 3.545s-7.505 0-9.377.505A3.017 3.017 0 0 0 .502 6.186C0 8.07 0 12 0 12s0 3.93.502 5.814a3.016 3.016 0 0 0 2.122 2.136c1.871.505 9.376.505 9.376.505s7.505 0 9.377-.505a3.015 3.015 0 0 0 2.122-2.136C24 15.93 24 12 24 12s0-3.93-.502-5.814zM9.545 15.568V8.432L15.818 12l-6.273 3.568z" />
  </symbol>

  <symbol id="medal" viewBox="0 0 24 24" fill="none" stroke-width="2" stroke-linecap="round">
    <path
      d="M7.21 15 2.66 7.14a2 2 0 0 1 .13-2.2L4.4 2.8A2 2 0 0 1 6 2h12a2 2 0 0 1 1.6.8l1.6 2.14a2 2 0 0 1 .14 2.2L16.79 15">
    </path>
    <path d="M11 12 5.12 2.2"></path>
    <path d="m13 12 5.88-9.8"></path>
    <path d="M8 7h8"></path>
    <circle cx="12" cy="17" r="5"></circle>
    <path d="M12 18v-2h-.5"></path>
  </symbol>

  <symbol id="x-circle" viewBox="0 0 24 24" fill="none" stroke="currentColor" stroke-width="2" stroke-linecap="round"
    stroke-linejoin="round">
    <circle cx="12" cy="12" r="10" />
    <path d="m15 9-6 6" />
    <path d="m9 9 6 6" />
  </symbol>

  <symbol id="servers" viewBox="0 0 1024 1024" fill="currentColor">
    <path
      d="M853 148c5 0 9 4 9 9v168c0 5-4 9-9 9H171c-5 0-9-4-9-9V157c0-5 4-9 9-9zm0-50H171c-32 0-59 26-59 59v168c0 32 27 59 59 59h682c32 0 59-27 59-59V157c0-33-27-59-59-59" />
    <path
      d="M291 214h-60v60h60zm103 0h-60v60h60zm412 0H591v60h215zm47 204c5 0 9 4 9 9v168c0 5-4 9-9 9H171c-5 0-9-4-9-9V427c0-5 4-9 9-9zm0-50H171c-32 0-59 26-59 59v168c0 32 27 59 59 59h682c32 0 59-27 59-59V427c0-33-27-59-59-59" />
    <path
      d="M291 484h-60v60h60zm103 0h-60v60h60zm412 0H591v60h215zm47 204c5 0 9 4 9 9v168c0 5-4 9-9 9H171c-5 0-9-4-9-9V697c0-5 4-9 9-9zm0-50H171c-32 0-59 26-59 59v168c0 32 27 59 59 59h682c32 0 59-27 59-59V697c0-33-27-59-59-59" />
    <path d="M291 754h-60v60h60zm103 0h-60v60h60zm412 0H591v60h215z" />
  </symbol>

  <symbol id="map" viewBox="0 0 24 24" fill="none" stroke="currentColor" stroke-width="2">
    <path
      d="M14.106 5.553a2 2 0 0 0 1.788 0l3.659-1.83A1 1 0 0 1 21 4.619v12.764a1 1 0 0 1-.553.894l-4.553 2.277a2 2 0 0 1-1.788 0l-4.212-2.106a2 2 0 0 0-1.788 0l-3.659 1.83A1 1 0 0 1 3 19.381V6.618a1 1 0 0 1 .553-.894l4.553-2.277a2 2 0 0 1 1.788 0z">
    </path>
    <path d="M15 5.764v15"></path>
    <path d="M9 3.236v15"></path>
  </symbol>

  <symbol id="users" viewBox="0 0 24 24" fill="none" stroke="currentColor" stroke-width="2" stroke-linecap="round">
    <path d="M16 21v-2a4 4 0 0 0-4-4H6a4 4 0 0 0-4 4v2"></path>
    <circle cx="9" cy="7" r="4"></circle>
    <path d="M22 21v-2a4 4 0 0 0-3-3.87"></path>
    <path d="M16 3.13a4 4 0 0 1 0 7.75"></path>
  </symbol>

  <symbol id="exclamation-mark" viewBox="0 0 24 24" fill="none" stroke="currentColor" stroke-width="2"
    stroke-linecap="round">
    <circle cx="12" cy="12" r="10"></circle>
    <path d="M12 16v-4"></path>
    <path d="M12 8h.01"></path>
  </symbol>

  <symbol id="search" viewBox="0 0 24 24" fill="none" stroke="currentColor" stroke-width="2" stroke-linecap="round">
    <circle cx="11" cy="11" r="8"></circle>
    <path d="m21 21-4.3-4.3"></path>
  </symbol>

  <symbol id="timer" viewBox="0 0 24 24" fill="none" stroke="currentColor" stroke-width="2" stroke-linecap="round">
    <circle cx="12" cy="12" r="10"></circle>
    <polyline points="12 6 12 12 16 14"></polyline>
  </symbol>

  <symbol id="right-arrow" viewBox="0 0 320 512">
    <path
      d="M278.6 233.4c12.5 12.5 12.5 32.8 0 45.3l-160 160c-12.5 12.5-32.8 12.5-45.3 0s-12.5-32.8 0-45.3L210.7 256 73.4 118.6c-12.5-12.5-12.5-32.8 0-45.3s32.8-12.5 45.3 0l160 160z" />
  </symbol>

  <symbol id="retry" viewBox="0 0 24 24" fill="none" stroke="currentColor">
    <path
      d="M4 4v5h.582m15.356 2A8.001 8.001 0 0 0 4.582 9m0 0H9m11 11v-5h-.581m0 0a8.003 8.003 0 0 1-15.357-2m15.357 2H15" />
  </symbol>

  <symbol id="discord" viewBox="0 0 24 24">
    <path
      d="M20.317 4.492c-1.53-.69-3.17-1.2-4.885-1.49a.075.075 0 0 0-.079.036c-.21.39-.444.885-.608 1.28a18.566 18.566 0 0 0-5.487 0c-.164-.395-.397-.89-.608-1.28a.077.077 0 0 0-.079-.036c-1.714.29-3.354.8-4.885 1.491a.07.07 0 0 0-.032.027C.533 9.05-.32 13.465.099 17.837a.082.082 0 0 0 .031.057 20.03 20.03 0 0 0 5.993 2.98.078.078 0 0 0 .084-.026c.462-.62.874-1.275 1.226-1.963.021-.04.001-.088-.041-.104a13.229 13.229 0 0 1-1.872-.878.075.075 0 0 1-.008-.125c.126-.093.252-.19.372-.287a.075.075 0 0 1 .078-.01c3.927 1.764 8.18 1.764 12.061 0a.075.075 0 0 1 .079.009c.12.098.245.195.372.288a.075.075 0 0 1-.006.125c-.598.344-1.22.635-1.873.877a.075.075 0 0 0-.041.105c.36.687.772 1.341 1.225 1.962a.077.077 0 0 0 .084.028 19.963 19.963 0 0 0 6.002-2.981.076.076 0 0 0 .032-.054c.5-5.094-.838-9.52-3.549-13.318a.06.06 0 0 0-.031-.028zM8.02 15.278c-1.182 0-2.157-1.069-2.157-2.38 0-1.312.956-2.38 2.157-2.38 1.21 0 2.176 1.077 2.157 2.38 0 1.312-.956 2.38-2.157 2.38zm7.975 0c-1.183 0-2.157-1.069-2.157-2.38 0-1.312.955-2.38 2.157-2.38 1.21 0 2.176 1.077 2.157 2.38 0 1.312-.946 2.38-2.157 2.38z">
    </path>
  </symbol>

  <symbol id="youtube-1" viewBox="0 0 24 24">
    <path
      d="M23.498 6.186a3.016 3.016 0 0 0-2.122-2.136C19.505 3.545 12 3.545 12 3.545s-7.505 0-9.377.505A3.017 3.017 0 0 0 .502 6.186C0 8.07 0 12 0 12s0 3.93.502 5.814a3.016 3.016 0 0 0 2.122 2.136c1.871.505 9.376.505 9.376.505s7.505 0 9.377-.505a3.015 3.015 0 0 0 2.122-2.136C24 15.93 24 12 24 12s0-3.93-.502-5.814zM9.545 15.568V8.432L15.818 12l-6.273 3.568z">
    </path>
  </symbol>

  <symbol id="github" viewBox="0 0 24 24">
    <path
      d="M12 .297c-6.63 0-12 5.373-12 12 0 5.303 3.438 9.8 8.205 11.385.6.113.82-.258.82-.577 0-.285-.01-1.04-.015-2.04-3.338.724-4.042-1.61-4.042-1.61C4.422 18.07 3.633 17.7 3.633 17.7c-1.087-.744.084-.729.084-.729 1.205.084 1.838 1.236 1.838 1.236 1.07 1.835 2.809 1.305 3.495.998.108-.776.417-1.305.76-1.605-2.665-.3-5.466-1.332-5.466-5.93 0-1.31.465-2.38 1.235-3.22-.135-.303-.54-1.523.105-3.176 0 0 1.005-.322 3.3 1.23.96-.267 1.98-.399 3-.405 1.02.006 2.04.138 3 .405 2.28-1.552 3.285-1.23 3.285-1.23.645 1.653.24 2.873.12 3.176.765.84 1.23 1.91 1.23 3.22 0 4.61-2.805 5.625-5.475 5.92.42.36.81 1.096.81 2.22 0 1.606-.015 2.896-.015 3.286 0 .315.21.69.825.57C20.565 22.092 24 17.592 24 12.297c0-6.627-5.373-12-12-12">
    </path>
  </symbol>

  <symbol id="twitter" viewBox="0 0 512 512">
    <path
      d="M389.2 48h70.6L305.6 224.2 487 464H345L233.7 318.6 106.5 464H35.8L200.7 275.5 26.8 48H172.4L272.9 180.9 389.2 48zM364.4 421.8h39.1L151.1 88h-42L364.4 421.8z" />
  </symbol>

  <symbol id="jumpersHeaven" viewBox="46 46 1024 1024">
    <path
      d="M549 122c-10 18-10 18-15 37h-38l-2 3 29 24-5 23-1 4-2 9 1 5c6-1 10-6 16-9l3-2 3-2 3-2 7-6c6 1 11 6 17 9l3 2 3 2 4 2 6 6 4-1a14170 14170 0 0 0-8-32l-2-8 10-8 3-1 17-14-1-4-38-1-14-34zm-424 22c-5 4-5 9-7 15-5 32-2 66 11 96 9 19 20 35 35 51l3 2c8 10 21 19 32 26l7 5c-27-10-49-24-72-41l-8-8-9-6-4 1c-1 27 6 52 20 75a168 168 0 0 0 104 72c-32-1-61-8-90-21h-6c1 17 9 32 18 44l8 9 2 3c19 22 46 36 74 44l27 6c-21 3-40 3-61-1l-10-1-6-2-3 3c3 14 12 23 21 34l2 2c18 21 45 31 72 38l3 1c6 1 12 3 17 6-14 6-29 9-44 10l-1 2 3 4 1 4c9 11 22 20 36 25 16 7 32 9 49 10l31 3a39 39 0 0 0-6-14 336 336 0 0 1-55-210 18521 18521 0 0 1-1-94c0-9-1-20-6-29-9-13-22-19-36-25a1146 1146 0 0 1-15-7c-41-19-75-44-102-82l-1-2c-10-13-17-25-24-39l-2-3-1-2-3-4zm848 0c-4 4-6 9-9 14a263 263 0 0 1-65 83c-17 15-39 25-59 34l-2 1-11 5c-14 7-29 14-39 27-5 9-6 17-6 28v5a2333 2333 0 0 0-1 92 790 790 0 0 1-1 51c-4 57-24 111-55 159l-2 3-1 2-3 7h3c8-2 18-2 28-3 25-1 49-6 71-20 8-7 16-14 19-24l-1-1h-2c-13-2-26-4-39-9l-2-2 25-7c10-2 20-6 30-11l3-1c21-12 38-27 50-47l5-10-1-5-19 2c-9 2-20 2-30 2h-3c-8 0-17 0-26-2h4c34-6 65-20 91-43 16-15 28-34 33-54l1-8c-5-1-6-1-10 2a2222 2222 0 0 1-17 6c-21 8-44 13-66 12h2c32-11 64-27 86-54 15-19 26-41 31-64l1-4 1-25-4-1-7 5-2 1-10 9c-22 18-44 31-70 40l3-2c14-9 26-19 38-30l2-2a162 162 0 0 0 43-155l-2-5zM575 303h2a896 896 0 0 1 103 30c47 17 47 17 54 24a24506 24506 0 0 1 0 92c0 22 0 42-5 62v4l-8 33-1 2a291 291 0 0 1-72 118c-11 12-23 22-35 30l-2 1a305 305 0 0 1-60 36 119 119 0 0 1-25-11q-25-14-48-32l-2-1a257 257 0 0 1-47-49l-24-36-1-2c-21-35-32-72-37-111v-3c-2-23-2-46-2-69a3503 3503 0 0 0 1-64c39-23 85-36 129-47l2-1 29-6 4-1a671 671 0 0 1 10-2c12-2 23 0 35 3m-35 48c-5 3-8 8-11 12-4 7-4 13-4 20 2 8 6 13 11 19l4 2 4 2c4 2 7 2 12 2h4c5 0 10-3 15-6 5-5 9-9 12-15v-13c0-6-3-9-5-13-5-7-8-9-17-13-10-1-16-1-25 3m121 12-4 2-65 53-109 1c-8 4-11 7-17 15-19 37-19 37-29 75l6 4h6l14-15 3-6 2-2 10-14 1-2a6471 6471 0 0 1 14-19v-2h23l-3 7-12 49c-11 44-24 84-47 123l-1 9 8 9c11 1 11 1 18-4a486 486 0 0 0 29-50l22-37 2-4 1-3 2-3 3-8a9412 9412 0 0 1 47-1 5595 5595 0 0 0-9 39v3c-2 8-2 13-2 21l6 5h8c11-10 17-31 23-45a37057 37057 0 0 1 11-25l1-3 1-2c2-4 2-8 2-13v-3c0-5 0-5-3-9-7-4-11-5-19-5h-6a3354 3354 0 0 0-29 0l1-2 20-47 3-1c12-3 19-8 28-17l2-1 17-19 7-8 1-2 10-11c6-6 12-13 16-20v-8l-5-4zm228-22 3 1ZM315 799l8 2-6 23-1 2c-1 4-3 9-7 12l-10 1-6-3 2-8 5 2h4zm16 5 8 3-7 26 1 8h13l1-3 6-26h9a106 106 0 0 1-4 23l-7 13c-6 3-6 3-15 3-5-2-9-5-13-9q-3-8 0-16l4-10 1-3zm461-9c4 4 5 12 6 17a2070 2070 0 0 0 4 12v3l3 10-10 2-3-3-5-3-2-3-14-11a172 172 0 0 0 6 21l-1 5-7 1a242 242 0 0 1-8-27l-4-13c7-2 7-2 12-1l2 2 21 17-1-2-3-10-2-4v-3l-1-4-1-4zm-43 14 2 7-15 5 2 7h2l2-1 4-1h6l1 7-13 3 1 9 2-1h5l3-1 7-1 3 8c-22 5-22 5-27 4a6113 6113 0 0 1-7-27l-1-3-1-10 8-2h2l6-2 2-1zm-378 5 11 3 4 27 13-22c4-1 4-1 12 1l-4 42-8-1v-9l1-2 1-18-1 2-6 9-1 4-2 3-2 3-4 6-6-2-4-29-9 26-8-2a12600 12600 0 0 1 8-27v-2zm347 2-5 44-10 3-22-37c3-3 3-3 9-4l4 7 1 4 10 16 3-30zm-298 9c15 1 15 1 22 4l4 5c1 9 1 9-2 16-6 3-6 3-11 3h-3l-6-1-1 14-1 1-8-1zm8 9-2 11h9l2-2v-6l-4-3zm238-7 9 11 15 28-10 2-4-10h-2l-4 1-3 1h-7l-2 11h-9l9-43zm-2 11-2 14h7l2-2-6-12zm-210-9 10 1h5l4 1 6 2-1 7h-6l-4-1-6-1v7l-1 3h5l3 1 7 1-1 6-14-1-1 9 15 2 1 1v7c-23-2-23-2-27-4a11117 11117 0 0 1 3-28v-2zm184 1v8l-15 2v9l15-1v6l-9 1h-5v11h3l15-1 1 7-8 1h-3l-16 1a5602 5602 0 0 1-3-41l9-2h2zm-150 4c17 0 17 0 23 3l4 3 1 10-4 5-5 2 10 16v2l-9 2c-10-14-10-14-10-18h-3l-1 16h-8c0-36 0-36 2-41m7 7v12h7l4-3-1-8c-3-2-3-2-10-1m45-7 9 3-1 7-8-2-7 1v5l12 6 4 5c0 8 0 8-3 13-7 5-7 5-17 5l-8-4 1-7 4 1 11 1 2-2-1-4-13-7-3-4v-9c7-7 9-8 18-8m56-1h9a60 60 0 0 1 2 16 3715 3715 0 0 1 1 26h-9c-2-5-1-11-1-17h-18l1 17-1 2h-7l-2-2-1-41h9l1 17h17v-3z" />
  </symbol>

  <symbol id="leaderboard" viewBox="0 0 26 24" fill="currentColor" style="transform: scale(1.1);">
    <path
      d="M22 7h-5.667V4a1 1 0 0 0-1-1H8.667a1 1 0 0 0-1 1v7H2a1 1 0 0 0-1 1v8a1 1 0 0 0 1 1h20a1 1 0 0 0 1-1V8a1 1 0 0 0-1-1ZM7.667 19H3v-6h4.667Zm6.666 0H9.667V5h4.666ZM21 19h-4.667V9H21Z" />
  </symbol>

  <symbol id="hamburger" viewBox="0 0 448 512">
    <path
      d="M0 96C0 78.3 14.3 64 32 64l384 0c17.7 0 32 14.3 32 32s-14.3 32-32 32L32 128C14.3 128 0 113.7 0 96zM0 256c0-17.7 14.3-32 32-32l384 0c17.7 0 32 14.3 32 32s-14.3 32-32 32L32 288c-17.7 0-32-14.3-32-32zM448 416c0 17.7-14.3 32-32 32L32 448c-17.7 0-32-14.3-32-32s14.3-32 32-32l384 0c17.7 0 32 14.3 32 32z" />
  </symbol>

  <symbol id="xMark" viewBox="0 0 384 512">
    <path
      d="M342.6 150.6c12.5-12.5 12.5-32.8 0-45.3s-32.8-12.5-45.3 0L192 210.7 86.6 105.4c-12.5-12.5-32.8-12.5-45.3 0s-12.5 32.8 0 45.3L146.7 256 41.4 361.4c-12.5 12.5-12.5 32.8 0 45.3s32.8 12.5 45.3 0L192 301.3 297.4 406.6c12.5 12.5 32.8 12.5 45.3 0s12.5-32.8 0-45.3L237.3 256 342.6 150.6z" />
  </symbol>

  <symbol id="youtube-2" viewBox="0 0 24 24" fill="#FF0000" xmlns="http://www.w3.org/2000/svg">
    <path
      d="M23.498 6.186a3.016 3.016 0 0 0-2.122-2.136C19.505 3.545 12 3.545 12 3.545s-7.505 0-9.377.505A3.017 3.017 0 0 0 .502 6.186C0 8.07 0 12 0 12s0 3.93.502 5.814a3.016 3.016 0 0 0 2.122 2.136c1.871.505 9.376.505 9.376.505s7.505 0 9.377-.505a3.015 3.015 0 0 0 2.122-2.136C24 15.93 24 12 24 12s0-3.93-.502-5.814zM9.545 15.568V8.432L15.818 12l-6.273 3.568z" />
  </symbol>

  <symbol id="questionMark" viewBox="0 0 24 24">
    <path
      d="M12 2C6.48 2 2 6.48 2 12s4.48 10 10 10 10-4.48 10-10S17.52 2 12 2zm1 17h-2v-2h2v2zm2.07-7.75l-.9.92C13.45 12.9 13 13.5 13 15h-2v-.5c0-1.1.45-2.1 1.17-2.83l1.24-1.26c.37-.36.59-.86.59-1.41 0-1.1-.9-2-2-2s-2 .9-2 2H8c0-2.21 1.79-4 4-4s4 1.79 4 4c0 .88-.36 1.68-.93 2.25z">
    </path>
  </symbol>

  <symbol id="window" viewBox="0 0 24 24">
    <path d="M3 11h8V3H3v8zm0 10h8v-8H3v8zM13 3v8h8V3h-8zm0 18h8v-8h-8v8z"></path>
  </symbol>

  <symbol id="list" viewBox="0 0 24 24">
    <path d="M4 18h16v-2H4v2zm0-5h16v-2H4v2zm0-7v2h16V6H4z"></path>
  </symbol>

  <symbol id="solidArrow" viewBox="0 0 24 24">
    <path d="M7 10l5 5 5-5H7z"></path>
  </symbol>

  <symbol id="globe" viewBox="0 0 24 24" fill="none" stroke="currentColor" stroke-width="2" stroke-linecap="round"
    stroke-linejoin="round">
    <circle cx="12" cy="12" r="10" />
    <line x1="2" x2="22" y1="12" y2="12" />
    <path d="M12 2a15.3 15.3 0 0 1 4 10 15.3 15.3 0 0 1-4 10 15.3 15.3 0 0 1-4-10 15.3 15.3 0 0 1 4-10z" />
  </symbol>

  <symbol id="shield" viewBox="0 0 24 24" fill="none" stroke="currentColor" stroke-width="2" stroke-linecap="round"
    stroke-linejoin="round">
    <path d="M12 22s8-4 8-10V5l-8-3-8 3v7c0 6 8 10 8 10z" />
  </symbol>

  <symbol id="ping" viewBox="0 0 24 24" fill="none" stroke="currentColor" stroke-width="2" stroke-linecap="round"
    stroke-linejoin="round">
    <path d="M5 12.55a11 11 0 0 1 14.08 0" />
    <path d="M1.42 9a16 16 0 0 1 21.16 0" />
    <path d="M8.53 16.11a6 6 0 0 1 6.95 0" />
    <line x1="12" x2="12.01" y1="20" y2="20" />
  </symbol>

  <symbol id="copy" viewBox="0 0 24 24" fill="none" stroke="currentColor" stroke-width="2">
    <rect width="14" height="14" x="8" y="8" rx="2" ry="2" />
    <path d="m4 16-2-2V4l2-2h10l2 2" />
  </symbol>

  <symbol id="youtube-3" viewBox="0 0 48 48">
    <path
      d="M43.2,33.9c-0.4,2.1-2.1,3.7-4.2,4c-3.3,0.5-8.8,1.1-15,1.1c-6.1,0-11.6-0.6-15-1.1c-2.1-0.3-3.8-1.9-4.2-4C4.4,31.6,4,28.2,4,24c0-4.2,0.4-7.6,0.8-9.9c0.4-2.1,2.1-3.7,4.2-4C12.3,9.6,17.8,9,24,9c6.2,0,11.6,0.6,15,1.1c2.1,0.3,3.8,1.9,4.2,4c0.4,2.3,0.9,5.7,0.9,9.9C44,28.2,43.6,31.6,43.2,33.9z" />
    <path d="M20 31L20 17 32 24z" />
  </symbol>

  <symbol id="calculator" viewBox="0 0 24 24" fill="none" stroke="currentColor" stroke-width="2" stroke-linecap="round"
    stroke-linejoin="round">
    <rect x="4" y="2" width="16" height="20" rx="2"></rect>
    <line x1="8" y1="6" x2="16" y2="6"></line>
    <line x1="16" y1="14" x2="16" y2="18"></line>
    <path d="M16 10h.01"></path>
    <path d="M12 10h.01"></path>
    <path d="M8 10h.01"></path>
    <path d="M12 14h.01"></path>
    <path d="M8 14h.01"></path>
    <path d="M12 18h.01"></path>
    <path d="M8 18h.01"></path>
  </symbol>

  <symbol id="checked" viewBox="0 0 448 512">
    <path
      d="M439 105c12 13 12 33 0 46L183 407a32 32 0 0 1-46 0L9 279a32 32 0 0 1 46-46l105 106 233-234c13-12 33-12 46 0z" />
  </symbol>

  <symbol id="chart-bar" viewBox="0 0 24 24" fill="none" stroke="currentColor" stroke-width="2" stroke-linecap="round"
    stroke-linejoin="round">
    <line x1="18" y1="20" x2="18" y2="10"></line>
    <line x1="12" y1="20" x2="12" y2="4"></line>
    <line x1="6" y1="20" x2="6" y2="14"></line>
    <line x1="2" y1="20" x2="22" y2="20"></line>
  </symbol>

  <symbol id="check-circle" viewBox="0 0 24 24" width="17" height="17" fill="none" stroke="currentColor"
    stroke-width="2" stroke-linecap="round" stroke-linejoin="round">
    <path d="M22 11.08V12a10 10 0 1 1-5.93-9.14"></path>
    <polyline points="22 4 12 14.01 9 11.01"></polyline>
  </symbol>

  <symbol id="chevron-down" width="12" height="12" viewBox="0 0 24 24" fill="none" stroke="#6b7280" stroke-width="2"
    stroke-linecap="round" stroke-linejoin="round">
    <polyline points="6 9 12 15 18 9" />
  </symbol>

  <symbol id="wishlist" viewBox="0 0 24 24" width="16" height="16" fill="none" stroke="currentColor" stroke-width="2"
    stroke-linecap="round" stroke-linejoin="round">
    <path d="M19 21l-7-5-7 5V5a2 2 0 0 1 2-2h10a2 2 0 0 1 2 2z"></path>
  </symbol>

  <symbol id="flag" width="16" height="16" fill="currentColor" viewBox="0 0 16 16">
    <path
      d="M14.778.085A.5.5 0 0 1 15 .5V8a.5.5 0 0 1-.314.464L14.5 8l.186.464-.003.001-.006.003-.023.009a12 12 0 0 1-.397.15c-.264.095-.631.223-1.047.35-.816.252-1.879.523-2.71.523-.847 0-1.548-.28-2.158-.525l-.028-.01C7.68 8.71 7.14 8.5 6.5 8.5c-.7 0-1.638.23-2.437.477A20 20 0 0 0 3 9.342V15.5a.5.5 0 0 1-1 0V.5a.5.5 0 0 1 1 0v.282c.226-.079.496-.17.79-.26C4.606.272 5.67 0 6.5 0c.84 0 1.524.277 2.121.519l.043.018C9.286.788 9.828 1 10.5 1c.7 0 1.638-.23 2.437-.477a20 20 0 0 0 1.349-.476l.019-.007.004-.002h.001M14 1.221c-.22.078-.48.167-.766.255-.81.252-1.872.523-2.734.523-.886 0-1.592-.286-2.203-.534l-.008-.003C7.662 1.21 7.139 1 6.5 1c-.669 0-1.606.229-2.415.478A21 21 0 0 0 3 1.845v6.433c.22-.078.48-.167.766-.255C4.576 7.77 5.638 7.5 6.5 7.5c.847 0 1.548.28 2.158.525l.028.01C9.32 8.29 9.86 8.5 10.5 8.5c.668 0 1.606-.229 2.415-.478A21 21 0 0 0 14 7.655V1.222z" />
  </symbol>

  <symbol id="gauge" width="16" height="16" fill="currentColor" viewBox="0 0 16 16">
    <path
      d="M8 4a.5.5 0 0 1 .5.5V6a.5.5 0 0 1-1 0V4.5A.5.5 0 0 1 8 4M3.732 5.732a.5.5 0 0 1 .707 0l.915.914a.5.5 0 1 1-.708.708l-.914-.915a.5.5 0 0 1 0-.707M2 10a.5.5 0 0 1 .5-.5h1.586a.5.5 0 0 1 0 1H2.5A.5.5 0 0 1 2 10m9.5 0a.5.5 0 0 1 .5-.5h1.5a.5.5 0 0 1 0 1H12a.5.5 0 0 1-.5-.5m.754-4.246a.39.39 0 0 0-.527-.02L7.547 9.31a.91.91 0 1 0 1.302 1.258l3.434-4.297a.39.39 0 0 0-.029-.518z" />
    <path fill-rule="evenodd"
      d="M0 10a8 8 0 1 1 15.547 2.661c-.442 1.253-1.845 1.602-2.932 1.25C11.309 13.488 9.475 13 8 13c-1.474 0-3.31.488-4.615.911-1.087.352-2.49.003-2.932-1.25A8 8 0 0 1 0 10m8-7a7 7 0 0 0-6.603 9.329c.203.575.923.876 1.68.63C4.397 12.533 6.358 12 8 12s3.604.532 4.923.96c.757.245 1.477-.056 1.68-.631A7 7 0 0 0 8 3" />
  </symbol>

  <symbol id="calendar" viewBox="0 0 24 24" width="14" height="14" fill="none" stroke="currentColor" stroke-width="2"
    stroke-linecap="round" stroke-linejoin="round">
    <rect x="3" y="4" width="18" height="18" rx="2" ry="2"></rect>
    <line x1="16" y1="2" x2="16" y2="6"></line>
    <line x1="8" y1="2" x2="8" y2="6"></line>
    <line x1="3" y1="10" x2="21" y2="10"></line>
  </symbol>

  <symbol id="line-chart" width="16" height="16" fill="currentColor" stroke="currentColor" stroke-width="0.6"
    viewBox="0 0 16 16">
    <path fill-rule="evenodd"
      d="M0 0h1v15h15v1H0zm14.817 3.113a.5.5 0 0 1 .07.704l-4.5 5.5a.5.5 0 0 1-.74.037L7.06 6.767l-3.656 5.027a.5.5 0 0 1-.808-.588l4-5.5a.5.5 0 0 1 .758-.06l2.609 2.61 4.15-5.073a.5.5 0 0 1 .704-.07" />
  </symbol>

  <symbol id="joystick" fill="currentColor" class="bi bi-joystick" viewBox="0 0 16 16">
    <path
      d="M10 2a2 2 0 0 1-1.5 1.937v5.087c.863.083 1.5.377 1.5.726 0 .414-.895.75-2 .75s-2-.336-2-.75c0-.35.637-.643 1.5-.726V3.937A2 2 0 1 1 10 2" />
    <path
      d="M0 9.665v1.717a1 1 0 0 0 .553.894l6.553 3.277a2 2 0 0 0 1.788 0l6.553-3.277a1 1 0 0 0 .553-.894V9.665c0-.1-.06-.19-.152-.23L9.5 6.715v.993l5.227 2.178a.125.125 0 0 1 .001.23l-5.94 2.546a2 2 0 0 1-1.576 0l-5.94-2.546a.125.125 0 0 1 .001-.23L6.5 7.708l-.013-.988L.152 9.435a.25.25 0 0 0-.152.23" />
  </symbol>

  <symbol id="heart" viewBox="0 0 512 512">
    <path
      d="m226 468-3-2L48 303C17 275 0 235 0 193v-3a147 147 0 0 1 256-98 130 130 0 0 1 25-22 147 147 0 0 1 231 120v3c0 42-17 82-48 110L289 466l-3 2a45 45 0 0 1-60 0zm13-323-1-1-18-20a98 98 0 0 0-172 66v3c0 28 12 56 33 75l175 163 175-163c21-19 33-47 33-75v-3a99 99 0 0 0-172-66l-18 20-1 1a24 24 0 0 1-34 0z" />
  </symbol>

  <symbol id="trashCan" viewBox="0 0 448 512">
    <path
      d="M135 18c6-11 17-18 29-18h120c12 0 23 7 29 18l7 14h96a32 32 0 1 1 0 64H32a32 32 0 1 1 0-64h96zM32 128h384v320c0 35-29 64-64 64H96c-35 0-64-29-64-64zm96 64c-9 0-16 7-16 16v224c0 9 7 16 16 16s16-7 16-16V208c0-9-7-16-16-16m96 0c-9 0-16 7-16 16v224c0 9 7 16 16 16s16-7 16-16V208c0-9-7-16-16-16m96 0c-9 0-16 7-16 16v224c0 9 7 16 16 16s16-7 16-16V208c0-9-7-16-16-16" />
  </symbol>

  <symbol id="minus" viewBox="0 0 640 640">
    <path d="M96 320c0-18 14-32 32-32h384a32 32 0 1 1 0 64H128c-18 0-32-14-32-32" />
  </symbol>

  <symbol id="plus" viewBox="0 0 640 640">
    <path
      d="M352 128a32 32 0 1 0-64 0v160H128a32 32 0 1 0 0 64h160v160a32 32 0 1 0 64 0V352h160a32 32 0 1 0 0-64H352z" />
  </symbol>

  <symbol id="angles-down" viewBox="0 0 640 640">
    <path
      d="M343 535a32 32 0 0 1-46 0L137 375a32 32 0 0 1 46-46l137 138 137-138a32 32 0 0 1 46 46zm160-352L343 343a32 32 0 0 1-46 0L137 183a32 32 0 0 1 46-46l137 138 137-138a32 32 0 0 1 46 46" />
  </symbol>

  <symbol id="eye" viewBox="0 0 576 512">
    <path
      d="M288 80c-65 0-119 30-160 68-38 36-65 78-79 108 14 30 41 73 79 108 41 38 95 68 160 68s119-30 160-68c38-35 65-78 79-108-14-30-41-72-79-108-41-38-95-68-160-68M95 113c48-44 112-81 193-81s146 37 193 81c46 43 78 95 93 131q4.5 12 0 24c-15 36-47 88-93 131-47 44-112 81-193 81s-145-37-193-81c-46-43-78-95-92-131q-6-12 0-24c14-36 46-88 92-131m193 223a80 80 0 1 0 0-160h-2l2 16a64 64 0 0 1-80 62v2c0 44 36 80 80 80m0-208a128 128 0 1 1 0 256 128 128 0 1 1 0-256" />
  </symbol>

  <symbol id="eye-slash" viewBox="0 0 640 512">
    <path
      d="M39 5A24 24 0 0 0 9 43l592 464a24 24 0 0 0 30-38l-105-82c39-41 66-86 80-119q4.5-12 0-24c-15-36-47-88-93-131-47-44-112-81-193-81-68 0-125 26-169 61zm151 118c36-25 80-43 130-43 65 0 119 30 160 68 38 36 65 78 79 108-13 28-37 67-71 101l-54-42a128 128 0 0 0-198-155zm205 161-82-64a64 64 0 0 0 5-44h2a80 80 0 0 1 75 108m51 164-42-33c-25 10-53 17-84 17-65 0-119-30-160-68-38-35-65-78-79-108 9-18 22-41 40-65l-38-29c-23 29-39 59-48 82q-6 12 0 24c14 36 46 88 93 131a263 263 0 0 0 319 48zm-88-70-56-44c-23-5-43-21-54-42l-56-45v9a128 128 0 0 0 166 122" />
  </symbol>

  <symbol id="zoom-in" viewBox="0 0 24 24" fill="none" stroke="currentColor">
    <circle cx="11" cy="11" r="8" />
    <path d="m21 21-4.35-4.35M11 8v6m-3-3h6" />
  </symbol>

  <symbol id="zoom-out" viewBox="0 0 24 24" fill="none" stroke="currentColor">
    <circle cx="11" cy="11" r="8" />
    <path d="m21 21-4.35-4.35M8 11h6" />
  </symbol>

  <symbol id="infinite-circles" viewBox="0 0 24 24" fill="none" stroke="currentColor">
    <path d="M3 2v6h6" />
    <path d="M21 12A9 9 0 0 0 6 5.3L3 8m18 14v-6h-6" />
    <path d="M3 12a9 9 0 0 0 15 6.7l3-2.7" />
  </symbol>

  <symbol id="message" fill="none" stroke="currentColor" viewBox="0 0 24 24">
    <path d="M21 15a2 2 0 0 1-2 2H7l-4 4V5a2 2 0 0 1 2-2h14a2 2 0 0 1 2 2zM8 10h8m-8 4h6" />
  </symbol>
</svg>